# xmcd CD database file
#
# Track frame offsets:
#	150
#	24055
#	45817
#	69805
#
# Disc length: 1260 seconds
#
# Revision: 3
# Processed by: cddbd v1.5.1PL0 Copyright (c) Steve Scherf et al.
# Submitted via: CDex 1.51
#
DISCID=1a04ea04
DTITLE=モーニング娘。 - Early Single Box DISC.6 ふるさと
DYEAR=2004
DGENRE=Hello!Project
TTITLE0=ふるさと
TTITLE1=忘れらんない
TTITLE2=ふるさと (Instrumental)
TTITLE3=ふるさと (Early Vocal Version)
EXTD=YEAR: 2004
EXTT0=
EXTT1=
EXTT2=
EXTT3=
PLAYORDER=
